<mxfile host="app.diagrams.net" modified="2020-11-30T02:03:03.935Z" agent="5.0 (Windows NT 10.0; Win64; x64) AppleWebKit/537.36 (KHTML, like Gecko) Chrome/86.0.4240.198 Safari/537.36" etag="QWKWNem3H0PKi41rDK8K" version="13.10.4" type="github">
  <diagram id="n40HMGHdDUbn3N_Vu_-3" name="Page-1">
    <mxGraphModel dx="1552" dy="811" grid="1" gridSize="10" guides="1" tooltips="1" connect="1" arrows="1" fold="1" page="1" pageScale="1" pageWidth="1920" pageHeight="1200" math="0" shadow="0">
      <root>
        <mxCell id="0" />
        <mxCell id="1" parent="0" />
        <mxCell id="2APCgQR3dXpyxrjzse8T-1" value="&lt;font style=&quot;font-size: 20px;&quot;&gt;Algoritma Shanon Fano&lt;/font&gt;" style="text;html=1;align=center;verticalAlign=middle;resizable=0;points=[];autosize=1;fontStyle=1;fontSize=20;" vertex="1" parent="1">
          <mxGeometry x="140" y="45" width="240" height="30" as="geometry" />
        </mxCell>
        <mxCell id="2APCgQR3dXpyxrjzse8T-2" value="Nama Adik : &lt;b&gt;Ariani&lt;/b&gt;" style="text;html=1;align=center;verticalAlign=middle;resizable=0;points=[];autosize=1;fontSize=20;" vertex="1" parent="1">
          <mxGeometry x="150" y="90" width="190" height="30" as="geometry" />
        </mxCell>
        <mxCell id="2APCgQR3dXpyxrjzse8T-3" value="Teks" style="rounded=0;whiteSpace=wrap;html=1;fontSize=20;fillColor=#ffe6cc;strokeColor=#d79b00;fontStyle=1" vertex="1" parent="1">
          <mxGeometry x="120" y="160" width="60" height="40" as="geometry" />
        </mxCell>
        <mxCell id="2APCgQR3dXpyxrjzse8T-4" value="A" style="rounded=0;whiteSpace=wrap;html=1;fontSize=20;" vertex="1" parent="1">
          <mxGeometry x="120" y="200" width="60" height="40" as="geometry" />
        </mxCell>
        <mxCell id="2APCgQR3dXpyxrjzse8T-5" value="R" style="rounded=0;whiteSpace=wrap;html=1;fontSize=20;" vertex="1" parent="1">
          <mxGeometry x="120" y="240" width="60" height="40" as="geometry" />
        </mxCell>
        <mxCell id="2APCgQR3dXpyxrjzse8T-6" value="I" style="rounded=0;whiteSpace=wrap;html=1;fontSize=20;" vertex="1" parent="1">
          <mxGeometry x="120" y="280" width="60" height="40" as="geometry" />
        </mxCell>
        <mxCell id="2APCgQR3dXpyxrjzse8T-7" value="A" style="rounded=0;whiteSpace=wrap;html=1;fontSize=20;" vertex="1" parent="1">
          <mxGeometry x="120" y="320" width="60" height="40" as="geometry" />
        </mxCell>
        <mxCell id="2APCgQR3dXpyxrjzse8T-8" value="N" style="rounded=0;whiteSpace=wrap;html=1;fontSize=20;" vertex="1" parent="1">
          <mxGeometry x="120" y="360" width="60" height="40" as="geometry" />
        </mxCell>
        <mxCell id="2APCgQR3dXpyxrjzse8T-9" value="I" style="rounded=0;whiteSpace=wrap;html=1;fontSize=20;" vertex="1" parent="1">
          <mxGeometry x="120" y="400" width="60" height="40" as="geometry" />
        </mxCell>
        <mxCell id="2APCgQR3dXpyxrjzse8T-10" value="" style="rounded=0;whiteSpace=wrap;html=1;fontSize=20;" vertex="1" parent="1">
          <mxGeometry x="120" y="440" width="60" height="40" as="geometry" />
        </mxCell>
        <mxCell id="2APCgQR3dXpyxrjzse8T-11" value="6" style="rounded=0;whiteSpace=wrap;html=1;fontSize=20;" vertex="1" parent="1">
          <mxGeometry x="120" y="480" width="60" height="40" as="geometry" />
        </mxCell>
        <mxCell id="2APCgQR3dXpyxrjzse8T-12" value="Simbol" style="rounded=0;whiteSpace=wrap;html=1;fontSize=20;fillColor=#ffe6cc;strokeColor=#d79b00;fontStyle=1" vertex="1" parent="1">
          <mxGeometry x="180" y="160" width="90" height="40" as="geometry" />
        </mxCell>
        <mxCell id="2APCgQR3dXpyxrjzse8T-13" value="A" style="rounded=0;whiteSpace=wrap;html=1;fontSize=20;" vertex="1" parent="1">
          <mxGeometry x="180" y="200" width="90" height="40" as="geometry" />
        </mxCell>
        <mxCell id="2APCgQR3dXpyxrjzse8T-14" value="R" style="rounded=0;whiteSpace=wrap;html=1;fontSize=20;" vertex="1" parent="1">
          <mxGeometry x="180" y="240" width="90" height="40" as="geometry" />
        </mxCell>
        <mxCell id="2APCgQR3dXpyxrjzse8T-15" value="I" style="rounded=0;whiteSpace=wrap;html=1;fontSize=20;" vertex="1" parent="1">
          <mxGeometry x="180" y="280" width="90" height="40" as="geometry" />
        </mxCell>
        <mxCell id="2APCgQR3dXpyxrjzse8T-16" value="N" style="rounded=0;whiteSpace=wrap;html=1;fontSize=20;" vertex="1" parent="1">
          <mxGeometry x="180" y="320" width="90" height="40" as="geometry" />
        </mxCell>
        <mxCell id="2APCgQR3dXpyxrjzse8T-17" value="" style="rounded=0;whiteSpace=wrap;html=1;fontSize=20;" vertex="1" parent="1">
          <mxGeometry x="180" y="360" width="90" height="40" as="geometry" />
        </mxCell>
        <mxCell id="2APCgQR3dXpyxrjzse8T-18" value="" style="rounded=0;whiteSpace=wrap;html=1;fontSize=20;" vertex="1" parent="1">
          <mxGeometry x="180" y="400" width="90" height="40" as="geometry" />
        </mxCell>
        <mxCell id="2APCgQR3dXpyxrjzse8T-19" value="" style="rounded=0;whiteSpace=wrap;html=1;fontSize=20;" vertex="1" parent="1">
          <mxGeometry x="180" y="440" width="90" height="40" as="geometry" />
        </mxCell>
        <mxCell id="2APCgQR3dXpyxrjzse8T-20" value="Jumlah" style="rounded=0;whiteSpace=wrap;html=1;fontSize=20;" vertex="1" parent="1">
          <mxGeometry x="180" y="480" width="90" height="40" as="geometry" />
        </mxCell>
        <mxCell id="2APCgQR3dXpyxrjzse8T-21" value="Kemunculan" style="rounded=0;whiteSpace=wrap;html=1;fontSize=20;fillColor=#ffe6cc;strokeColor=#d79b00;fontStyle=1" vertex="1" parent="1">
          <mxGeometry x="270" y="160" width="140" height="40" as="geometry" />
        </mxCell>
        <mxCell id="2APCgQR3dXpyxrjzse8T-22" value="2" style="rounded=0;whiteSpace=wrap;html=1;fontSize=20;" vertex="1" parent="1">
          <mxGeometry x="270" y="200" width="140" height="40" as="geometry" />
        </mxCell>
        <mxCell id="2APCgQR3dXpyxrjzse8T-23" value="1" style="rounded=0;whiteSpace=wrap;html=1;fontSize=20;" vertex="1" parent="1">
          <mxGeometry x="270" y="240" width="140" height="40" as="geometry" />
        </mxCell>
        <mxCell id="2APCgQR3dXpyxrjzse8T-24" value="2" style="rounded=0;whiteSpace=wrap;html=1;fontSize=20;" vertex="1" parent="1">
          <mxGeometry x="270" y="280" width="140" height="40" as="geometry" />
        </mxCell>
        <mxCell id="2APCgQR3dXpyxrjzse8T-25" value="1" style="rounded=0;whiteSpace=wrap;html=1;fontSize=20;" vertex="1" parent="1">
          <mxGeometry x="270" y="320" width="140" height="40" as="geometry" />
        </mxCell>
        <mxCell id="2APCgQR3dXpyxrjzse8T-27" value="" style="rounded=0;whiteSpace=wrap;html=1;fontSize=20;" vertex="1" parent="1">
          <mxGeometry x="270" y="360" width="140" height="40" as="geometry" />
        </mxCell>
        <mxCell id="2APCgQR3dXpyxrjzse8T-28" value="" style="rounded=0;whiteSpace=wrap;html=1;fontSize=20;" vertex="1" parent="1">
          <mxGeometry x="270" y="400" width="140" height="40" as="geometry" />
        </mxCell>
        <mxCell id="2APCgQR3dXpyxrjzse8T-29" value="" style="rounded=0;whiteSpace=wrap;html=1;fontSize=20;" vertex="1" parent="1">
          <mxGeometry x="270" y="440" width="140" height="40" as="geometry" />
        </mxCell>
        <mxCell id="2APCgQR3dXpyxrjzse8T-30" value="6" style="rounded=0;whiteSpace=wrap;html=1;fontSize=20;" vertex="1" parent="1">
          <mxGeometry x="270" y="480" width="140" height="40" as="geometry" />
        </mxCell>
        <mxCell id="2APCgQR3dXpyxrjzse8T-31" value="Probabilitas" style="rounded=0;whiteSpace=wrap;html=1;fontSize=20;fillColor=#ffe6cc;strokeColor=#d79b00;fontStyle=1" vertex="1" parent="1">
          <mxGeometry x="410" y="160" width="150" height="40" as="geometry" />
        </mxCell>
        <mxCell id="2APCgQR3dXpyxrjzse8T-32" value="0,333333333" style="rounded=0;whiteSpace=wrap;html=1;fontSize=20;align=center;" vertex="1" parent="1">
          <mxGeometry x="410" y="200" width="150" height="40" as="geometry" />
        </mxCell>
        <mxCell id="2APCgQR3dXpyxrjzse8T-33" value="0,166666667" style="rounded=0;whiteSpace=wrap;html=1;fontSize=20;" vertex="1" parent="1">
          <mxGeometry x="410" y="240" width="150" height="40" as="geometry" />
        </mxCell>
        <mxCell id="2APCgQR3dXpyxrjzse8T-34" value="0,333333333" style="rounded=0;whiteSpace=wrap;html=1;fontSize=20;" vertex="1" parent="1">
          <mxGeometry x="410" y="280" width="150" height="40" as="geometry" />
        </mxCell>
        <mxCell id="2APCgQR3dXpyxrjzse8T-35" value="0,166666667" style="rounded=0;whiteSpace=wrap;html=1;fontSize=20;" vertex="1" parent="1">
          <mxGeometry x="410" y="320" width="150" height="40" as="geometry" />
        </mxCell>
        <mxCell id="2APCgQR3dXpyxrjzse8T-36" value="" style="rounded=0;whiteSpace=wrap;html=1;fontSize=20;" vertex="1" parent="1">
          <mxGeometry x="410" y="360" width="150" height="40" as="geometry" />
        </mxCell>
        <mxCell id="2APCgQR3dXpyxrjzse8T-37" value="" style="rounded=0;whiteSpace=wrap;html=1;fontSize=20;" vertex="1" parent="1">
          <mxGeometry x="410" y="400" width="150" height="40" as="geometry" />
        </mxCell>
        <mxCell id="2APCgQR3dXpyxrjzse8T-38" value="" style="rounded=0;whiteSpace=wrap;html=1;fontSize=20;" vertex="1" parent="1">
          <mxGeometry x="410" y="440" width="150" height="40" as="geometry" />
        </mxCell>
        <mxCell id="2APCgQR3dXpyxrjzse8T-39" value="1" style="rounded=0;whiteSpace=wrap;html=1;fontSize=20;" vertex="1" parent="1">
          <mxGeometry x="410" y="480" width="150" height="40" as="geometry" />
        </mxCell>
        <mxCell id="2APCgQR3dXpyxrjzse8T-40" value="Pembuatan Pohon" style="text;html=1;align=center;verticalAlign=middle;resizable=0;points=[];autosize=1;fontSize=20;fillColor=#ffe6cc;strokeColor=#d79b00;fontStyle=1" vertex="1" parent="1">
          <mxGeometry x="645" y="200" width="190" height="30" as="geometry" />
        </mxCell>
        <mxCell id="2APCgQR3dXpyxrjzse8T-41" value="A" style="rounded=0;whiteSpace=wrap;html=1;fontSize=20;align=center;fillColor=#ffe6cc;strokeColor=#d79b00;" vertex="1" parent="1">
          <mxGeometry x="640" y="320" width="40" height="40" as="geometry" />
        </mxCell>
        <mxCell id="2APCgQR3dXpyxrjzse8T-42" value="I" style="rounded=0;whiteSpace=wrap;html=1;fontSize=20;align=center;fillColor=#ffe6cc;strokeColor=#d79b00;" vertex="1" parent="1">
          <mxGeometry x="680" y="320" width="40" height="40" as="geometry" />
        </mxCell>
        <mxCell id="2APCgQR3dXpyxrjzse8T-43" value="N" style="rounded=0;whiteSpace=wrap;html=1;fontSize=20;align=center;fillColor=#ffe6cc;strokeColor=#d79b00;" vertex="1" parent="1">
          <mxGeometry x="720" y="320" width="40" height="40" as="geometry" />
        </mxCell>
        <mxCell id="2APCgQR3dXpyxrjzse8T-44" value="R" style="rounded=0;whiteSpace=wrap;html=1;fontSize=20;align=center;fillColor=#ffe6cc;strokeColor=#d79b00;" vertex="1" parent="1">
          <mxGeometry x="760" y="320" width="40" height="40" as="geometry" />
        </mxCell>
        <mxCell id="2APCgQR3dXpyxrjzse8T-45" value="Kolom 1" style="text;html=1;align=center;verticalAlign=middle;resizable=0;points=[];autosize=1;fontSize=16;" vertex="1" parent="1">
          <mxGeometry x="645" y="295" width="70" height="20" as="geometry" />
        </mxCell>
        <mxCell id="2APCgQR3dXpyxrjzse8T-46" value="Kolom 2" style="text;html=1;align=center;verticalAlign=middle;resizable=0;points=[];autosize=1;fontSize=16;" vertex="1" parent="1">
          <mxGeometry x="730" y="295" width="70" height="20" as="geometry" />
        </mxCell>
        <mxCell id="2APCgQR3dXpyxrjzse8T-47" value="" style="ellipse;whiteSpace=wrap;html=1;fontSize=16;align=center;strokeColor=#005700;fontColor=#ffffff;fillColor=#000000;fontStyle=1" vertex="1" parent="1">
          <mxGeometry x="1050" y="165" width="60" height="30" as="geometry" />
        </mxCell>
        <mxCell id="2APCgQR3dXpyxrjzse8T-53" value="" style="endArrow=none;html=1;fontSize=16;fontStyle=1" edge="1" parent="1">
          <mxGeometry width="50" height="50" relative="1" as="geometry">
            <mxPoint x="920" y="280" as="sourcePoint" />
            <mxPoint x="1040" y="280" as="targetPoint" />
          </mxGeometry>
        </mxCell>
        <mxCell id="2APCgQR3dXpyxrjzse8T-54" value="" style="endArrow=none;html=1;fontSize=16;fontStyle=1" edge="1" parent="1">
          <mxGeometry width="50" height="50" relative="1" as="geometry">
            <mxPoint x="920" y="330" as="sourcePoint" />
            <mxPoint x="920" y="280" as="targetPoint" />
          </mxGeometry>
        </mxCell>
        <mxCell id="2APCgQR3dXpyxrjzse8T-55" value="" style="endArrow=none;html=1;fontSize=16;fontStyle=1" edge="1" parent="1">
          <mxGeometry width="50" height="50" relative="1" as="geometry">
            <mxPoint x="1040" y="300" as="sourcePoint" />
            <mxPoint x="1040" y="280" as="targetPoint" />
            <Array as="points">
              <mxPoint x="1040" y="330" />
              <mxPoint x="1040" y="300" />
            </Array>
          </mxGeometry>
        </mxCell>
        <mxCell id="2APCgQR3dXpyxrjzse8T-56" value="" style="endArrow=none;html=1;fontSize=16;entryX=0;entryY=1;entryDx=0;entryDy=0;fontStyle=1" edge="1" parent="1" target="2APCgQR3dXpyxrjzse8T-47">
          <mxGeometry width="50" height="50" relative="1" as="geometry">
            <mxPoint x="970" y="280" as="sourcePoint" />
            <mxPoint x="870" y="220" as="targetPoint" />
          </mxGeometry>
        </mxCell>
        <mxCell id="2APCgQR3dXpyxrjzse8T-57" value="" style="endArrow=none;html=1;fontSize=16;entryX=1;entryY=1;entryDx=0;entryDy=0;fontStyle=1" edge="1" parent="1" target="2APCgQR3dXpyxrjzse8T-47">
          <mxGeometry width="50" height="50" relative="1" as="geometry">
            <mxPoint x="1180" y="280" as="sourcePoint" />
            <mxPoint x="1188.7867965644036" y="140.60660171779818" as="targetPoint" />
          </mxGeometry>
        </mxCell>
        <mxCell id="2APCgQR3dXpyxrjzse8T-58" value="" style="endArrow=none;html=1;fontSize=16;fontStyle=1" edge="1" parent="1">
          <mxGeometry width="50" height="50" relative="1" as="geometry">
            <mxPoint x="1240" y="280" as="sourcePoint" />
            <mxPoint x="1120" y="280" as="targetPoint" />
          </mxGeometry>
        </mxCell>
        <mxCell id="2APCgQR3dXpyxrjzse8T-59" value="" style="endArrow=none;html=1;fontSize=16;fontStyle=1" edge="1" parent="1">
          <mxGeometry width="50" height="50" relative="1" as="geometry">
            <mxPoint x="1120" y="280" as="sourcePoint" />
            <mxPoint x="1120" y="320" as="targetPoint" />
          </mxGeometry>
        </mxCell>
        <mxCell id="2APCgQR3dXpyxrjzse8T-60" value="" style="endArrow=none;html=1;fontSize=16;fontStyle=1" edge="1" parent="1">
          <mxGeometry width="50" height="50" relative="1" as="geometry">
            <mxPoint x="1240" y="280" as="sourcePoint" />
            <mxPoint x="1240" y="320" as="targetPoint" />
          </mxGeometry>
        </mxCell>
        <mxCell id="2APCgQR3dXpyxrjzse8T-63" value="2" style="rounded=0;whiteSpace=wrap;html=1;fontSize=20;align=center;" vertex="1" parent="1">
          <mxGeometry x="640" y="360" width="40" height="40" as="geometry" />
        </mxCell>
        <mxCell id="2APCgQR3dXpyxrjzse8T-64" value="2" style="rounded=0;whiteSpace=wrap;html=1;fontSize=20;align=center;" vertex="1" parent="1">
          <mxGeometry x="680" y="360" width="40" height="40" as="geometry" />
        </mxCell>
        <mxCell id="2APCgQR3dXpyxrjzse8T-65" value="1" style="rounded=0;whiteSpace=wrap;html=1;fontSize=20;align=center;" vertex="1" parent="1">
          <mxGeometry x="720" y="360" width="40" height="40" as="geometry" />
        </mxCell>
        <mxCell id="2APCgQR3dXpyxrjzse8T-66" value="1" style="rounded=0;whiteSpace=wrap;html=1;fontSize=20;align=center;" vertex="1" parent="1">
          <mxGeometry x="760" y="360" width="40" height="40" as="geometry" />
        </mxCell>
        <mxCell id="2APCgQR3dXpyxrjzse8T-67" value="2" style="text;html=1;align=center;verticalAlign=middle;resizable=0;points=[];autosize=1;fontSize=16;fontStyle=1" vertex="1" parent="1">
          <mxGeometry x="910" y="330" width="20" height="20" as="geometry" />
        </mxCell>
        <mxCell id="2APCgQR3dXpyxrjzse8T-68" value="2" style="text;html=1;align=center;verticalAlign=middle;resizable=0;points=[];autosize=1;fontSize=16;fontStyle=1" vertex="1" parent="1">
          <mxGeometry x="1030" y="330" width="20" height="20" as="geometry" />
        </mxCell>
        <mxCell id="2APCgQR3dXpyxrjzse8T-69" value="1" style="text;html=1;align=center;verticalAlign=middle;resizable=0;points=[];autosize=1;fontSize=16;fontStyle=1" vertex="1" parent="1">
          <mxGeometry x="1110" y="330" width="20" height="20" as="geometry" />
        </mxCell>
        <mxCell id="2APCgQR3dXpyxrjzse8T-70" value="1" style="text;html=1;align=center;verticalAlign=middle;resizable=0;points=[];autosize=1;fontSize=16;fontStyle=1" vertex="1" parent="1">
          <mxGeometry x="1230" y="330" width="20" height="20" as="geometry" />
        </mxCell>
        <mxCell id="2APCgQR3dXpyxrjzse8T-71" value="A" style="text;html=1;align=center;verticalAlign=middle;resizable=0;points=[];autosize=1;fontSize=16;fontStyle=1" vertex="1" parent="1">
          <mxGeometry x="905" y="370" width="30" height="20" as="geometry" />
        </mxCell>
        <mxCell id="2APCgQR3dXpyxrjzse8T-72" value="I" style="text;html=1;align=center;verticalAlign=middle;resizable=0;points=[];autosize=1;fontSize=16;fontStyle=1" vertex="1" parent="1">
          <mxGeometry x="1030" y="370" width="20" height="20" as="geometry" />
        </mxCell>
        <mxCell id="2APCgQR3dXpyxrjzse8T-73" value="N" style="text;html=1;align=center;verticalAlign=middle;resizable=0;points=[];autosize=1;fontSize=16;fontStyle=1" vertex="1" parent="1">
          <mxGeometry x="1105" y="370" width="30" height="20" as="geometry" />
        </mxCell>
        <mxCell id="2APCgQR3dXpyxrjzse8T-74" value="R" style="text;html=1;align=center;verticalAlign=middle;resizable=0;points=[];autosize=1;fontSize=16;fontStyle=1" vertex="1" parent="1">
          <mxGeometry x="1225" y="370" width="30" height="20" as="geometry" />
        </mxCell>
        <mxCell id="2APCgQR3dXpyxrjzse8T-75" value="0" style="text;html=1;align=center;verticalAlign=middle;resizable=0;points=[];autosize=1;fontSize=16;fontStyle=1" vertex="1" parent="1">
          <mxGeometry x="980" y="210" width="20" height="20" as="geometry" />
        </mxCell>
        <mxCell id="2APCgQR3dXpyxrjzse8T-76" value="1" style="text;html=1;align=center;verticalAlign=middle;resizable=0;points=[];autosize=1;fontSize=16;fontStyle=1" vertex="1" parent="1">
          <mxGeometry x="1160" y="210" width="20" height="20" as="geometry" />
        </mxCell>
        <mxCell id="2APCgQR3dXpyxrjzse8T-78" value="0" style="text;html=1;align=center;verticalAlign=middle;resizable=0;points=[];autosize=1;fontSize=16;" vertex="1" parent="1">
          <mxGeometry x="890" y="290" width="20" height="20" as="geometry" />
        </mxCell>
        <mxCell id="2APCgQR3dXpyxrjzse8T-79" value="1" style="text;html=1;align=center;verticalAlign=middle;resizable=0;points=[];autosize=1;fontSize=16;fontStyle=1" vertex="1" parent="1">
          <mxGeometry x="1010" y="290" width="20" height="20" as="geometry" />
        </mxCell>
        <mxCell id="2APCgQR3dXpyxrjzse8T-80" value="0" style="text;html=1;align=center;verticalAlign=middle;resizable=0;points=[];autosize=1;fontSize=16;fontStyle=1" vertex="1" parent="1">
          <mxGeometry x="1090" y="290" width="20" height="20" as="geometry" />
        </mxCell>
        <mxCell id="2APCgQR3dXpyxrjzse8T-81" value="1" style="text;html=1;align=center;verticalAlign=middle;resizable=0;points=[];autosize=1;fontSize=16;fontStyle=1" vertex="1" parent="1">
          <mxGeometry x="1210" y="290" width="20" height="20" as="geometry" />
        </mxCell>
        <mxCell id="2APCgQR3dXpyxrjzse8T-82" value="Simbol" style="rounded=0;whiteSpace=wrap;html=1;fontSize=16;align=center;fillColor=#FFFFFF;" vertex="1" parent="1">
          <mxGeometry x="835" y="440" width="85" height="40" as="geometry" />
        </mxCell>
        <mxCell id="2APCgQR3dXpyxrjzse8T-83" value="Kode" style="rounded=0;whiteSpace=wrap;html=1;fontSize=16;align=center;fillColor=#FFFFFF;" vertex="1" parent="1">
          <mxGeometry x="920" y="440" width="85" height="40" as="geometry" />
        </mxCell>
        <mxCell id="2APCgQR3dXpyxrjzse8T-84" value="Panjang" style="rounded=0;whiteSpace=wrap;html=1;fontSize=16;align=center;fillColor=#FFFFFF;" vertex="1" parent="1">
          <mxGeometry x="1005" y="440" width="85" height="40" as="geometry" />
        </mxCell>
        <mxCell id="2APCgQR3dXpyxrjzse8T-85" value="Kemunculan" style="rounded=0;whiteSpace=wrap;html=1;fontSize=16;align=center;fillColor=#FFFFFF;" vertex="1" parent="1">
          <mxGeometry x="1090" y="440" width="110" height="40" as="geometry" />
        </mxCell>
        <mxCell id="2APCgQR3dXpyxrjzse8T-86" value="Bit" style="rounded=0;whiteSpace=wrap;html=1;fontSize=16;align=center;fillColor=#FFFFFF;" vertex="1" parent="1">
          <mxGeometry x="1200" y="440" width="60" height="40" as="geometry" />
        </mxCell>
      </root>
    </mxGraphModel>
  </diagram>
</mxfile>
